<svg id="visual" viewBox="0 0 900 100" width="900" height="100" xmlns="http://www.w3.org/2000/svg" xmlns:xlink="http://www.w3.org/1999/xlink" version="1.1"><rect x="0" y="0" width="900" height="100" fill="#fcfcfc"></rect><path d="M0 53L30 51.8C60 50.7 120 48.3 180 47.7C240 47 300 48 360 50.8C420 53.7 480 58.3 540 59.3C600 60.3 660 57.7 720 54.3C780 51 840 47 870 45L900 43L900 101L870 101C840 101 780 101 720 101C660 101 600 101 540 101C480 101 420 101 360 101C300 101 240 101 180 101C120 101 60 101 30 101L0 101Z" fill="#f3f8f0" stroke-linecap="round" stroke-linejoin="miter"></path></svg>