<svg id="visual" viewBox="0 0 900 100" width="900" height="100" xmlns="http://www.w3.org/2000/svg" xmlns:xlink="http://www.w3.org/1999/xlink" version="1.1"><rect x="0" y="0" width="900" height="100" fill="#fcfcfc"></rect><path d="M0 45L30 46.2C60 47.3 120 49.7 180 50.3C240 51 300 50 360 47.2C420 44.3 480 39.7 540 38.7C600 37.7 660 40.3 720 43.7C780 47 840 51 870 53L900 55L900 0L870 0C840 0 780 0 720 0C660 0 600 0 540 0C480 0 420 0 360 0C300 0 240 0 180 0C120 0 60 0 30 0L0 0Z" fill="#f3f8f0" stroke-linecap="round" stroke-linejoin="miter"></path></svg>