<svg id="visual" viewBox="0 0 960 200" width="960" height="200" xmlns="http://www.w3.org/2000/svg" xmlns:xlink="http://www.w3.org/1999/xlink" version="1.1"><rect x="0" y="0" width="960" height="200" fill="#FFF2D7"></rect><path d="M0 119L12.3 117.3C24.7 115.7 49.3 112.3 74 105.5C98.7 98.7 123.3 88.3 148 85.7C172.7 83 197.3 88 221.8 92.7C246.3 97.3 270.7 101.7 295.2 98.8C319.7 96 344.3 86 369 85.3C393.7 84.7 418.3 93.3 443 94C467.7 94.7 492.3 87.3 517 85.2C541.7 83 566.3 86 591 85.5C615.7 85 640.3 81 664.8 87.3C689.3 93.7 713.7 110.3 738.2 109C762.7 107.7 787.3 88.3 812 86.5C836.7 84.7 861.3 100.3 886 105.3C910.7 110.3 935.3 104.7 947.7 101.8L960 99L960 201L947.7 201C935.3 201 910.7 201 886 201C861.3 201 836.7 201 812 201C787.3 201 762.7 201 738.2 201C713.7 201 689.3 201 664.8 201C640.3 201 615.7 201 591 201C566.3 201 541.7 201 517 201C492.3 201 467.7 201 443 201C418.3 201 393.7 201 369 201C344.3 201 319.7 201 295.2 201C270.7 201 246.3 201 221.8 201C197.3 201 172.7 201 148 201C123.3 201 98.7 201 74 201C49.3 201 24.7 201 12.3 201L0 201Z" fill="#FFE0B5" stroke-linecap="round" stroke-linejoin="miter"></path></svg>