<svg id="visual" viewBox="0 0 900 200" width="900" height="200" xmlns="http://www.w3.org/2000/svg" xmlns:xlink="http://www.w3.org/1999/xlink" version="1.1"><rect x="0" y="0" width="900" height="200" fill="#f3f1ec"></rect><path d="M0 107L30 105.3C60 103.7 120 100.3 180 100.5C240 100.7 300 104.3 360 107.8C420 111.3 480 114.7 540 112.2C600 109.7 660 101.3 720 98.3C780 95.3 840 97.7 870 98.8L900 100L900 201L870 201C840 201 780 201 720 201C660 201 600 201 540 201C480 201 420 201 360 201C300 201 240 201 180 201C120 201 60 201 30 201L0 201Z" fill="#fcfcfc" stroke-linecap="round" stroke-linejoin="miter"></path></svg>