<svg id="visual" viewBox="0 0 900 300" width="900" height="300" xmlns="http://www.w3.org/2000/svg" xmlns:xlink="http://www.w3.org/1999/xlink" version="1.1"><rect x="0" y="0" width="900" height="300" fill="#fff"></rect><path d="M0 156L25 157.2C50 158.3 100 160.7 150 158.2C200 155.7 250 148.3 300 147C350 145.7 400 150.3 450 152.3C500 154.3 550 153.7 600 154.3C650 155 700 157 750 154C800 151 850 143 875 139L900 135L900 301L875 301C850 301 800 301 750 301C700 301 650 301 600 301C550 301 500 301 450 301C400 301 350 301 300 301C250 301 200 301 150 301C100 301 50 301 25 301L0 301Z" fill="#fffaf0" stroke-linecap="round" stroke-linejoin="miter"></path></svg>