<svg id="visual" viewBox="0 0 900 300" width="900" height="300" xmlns="http://www.w3.org/2000/svg" xmlns:xlink="http://www.w3.org/1999/xlink" version="1.1"><rect x="0" y="0" width="900" height="300" fill="#f1f1f1"></rect><path d="M0 140L30 141.2C60 142.3 120 144.7 180 147.5C240 150.3 300 153.7 360 152C420 150.3 480 143.7 540 143.7C600 143.7 660 150.3 720 153C780 155.7 840 154.3 870 153.7L900 153L900 0L870 0C840 0 780 0 720 0C660 0 600 0 540 0C480 0 420 0 360 0C300 0 240 0 180 0C120 0 60 0 30 0L0 0Z" fill="#fff" stroke-linecap="round" stroke-linejoin="miter"></path></svg>