<svg id="visual" viewBox="0 0 900 300" width="900" height="300" xmlns="http://www.w3.org/2000/svg" xmlns:xlink="http://www.w3.org/1999/xlink" version="1.1"><rect x="0" y="0" width="900" height="300" fill="#f1f1f1"></rect><path d="M0 158L30 156.8C60 155.7 120 153.3 180 150.5C240 147.7 300 144.3 360 146C420 147.7 480 154.3 540 154.3C600 154.3 660 147.7 720 145C780 142.3 840 143.7 870 144.3L900 145L900 301L870 301C840 301 780 301 720 301C660 301 600 301 540 301C480 301 420 301 360 301C300 301 240 301 180 301C120 301 60 301 30 301L0 301Z" fill="#fff" stroke-linecap="round" stroke-linejoin="miter"></path></svg>